<svg width="61" height="60" viewBox="0 0 61 60" fill="none" xmlns="http://www.w3.org/2000/svg">
<path d="M48.5307 4.42322H17.7882C15.7278 4.42322 14.0513 6.09972 14.0513 8.16006V13.4502H10.3151C9.8194 13.4502 9.41821 13.8514 9.41821 14.3471C9.41821 14.8427 9.8194 15.2439 10.3151 15.2439H14.0513V21.4459H10.3151C9.8194 21.4459 9.41821 21.8471 9.41821 22.3427C9.41821 22.8384 9.8194 23.2396 10.3151 23.2396H14.0513V29.4416H10.3151C9.8194 29.4416 9.41821 29.8427 9.41821 30.3384C9.41821 30.8335 9.8194 31.2352 10.3151 31.2352H14.0513V37.4366H10.3151C9.8194 37.4366 9.41821 37.8384 9.41821 38.3335C9.41821 38.8285 9.8194 39.2303 10.3151 39.2303H14.0513V44.8338H10.3151C9.8194 44.8338 9.41821 45.2356 9.41821 45.7306C9.41821 46.2257 9.8194 46.6275 10.3151 46.6275H14.0513V52.8234C14.0513 54.8838 15.7278 56.5603 17.7882 56.5603H42.1177C42.1195 56.5603 42.1213 56.5609 42.1237 56.5609C42.1261 56.5609 42.1273 56.5603 42.1297 56.5603H48.5313C50.5917 56.5603 52.2682 54.8838 52.2682 52.8234V8.16006C52.2676 6.09972 50.5911 4.42322 48.5307 4.42322ZM15.845 52.8234V46.6275H19.4401C19.9358 46.6275 20.337 46.2257 20.337 45.7306C20.337 45.2356 19.9358 44.8338 19.4401 44.8338H15.845V39.2303H19.4401C19.9358 39.2303 20.337 38.8285 20.337 38.3335C20.337 37.8384 19.9358 37.4366 19.4401 37.4366H15.845V31.2346H19.4401C19.9358 31.2346 20.337 30.8329 20.337 30.3378C20.337 29.8421 19.9358 29.441 19.4401 29.441H15.845V23.2396H19.4401C19.9358 23.2396 20.337 22.8384 20.337 22.3427C20.337 21.8471 19.9358 21.4459 19.4401 21.4459H15.845V15.2439H19.4401C19.9358 15.2439 20.337 14.8427 20.337 14.3471C20.337 13.8514 19.9358 13.4502 19.4401 13.4502H15.845V8.16006C15.845 7.08864 16.7167 6.2169 17.7882 6.2169H41.2262V54.7666H17.7882C16.7167 54.7666 15.845 53.8949 15.845 52.8234ZM50.4739 52.8234C50.4739 53.8949 49.6022 54.7666 48.5307 54.7666H43.0199V6.2169H48.5307C49.6022 6.2169 50.4739 7.08864 50.4739 8.16006V52.8234Z" fill="#EE58B6"/>
</svg>
