<svg width="61" height="60" viewBox="0 0 61 60" fill="none" xmlns="http://www.w3.org/2000/svg">
<path d="M29.95 3.93298C15.6346 3.93298 3.98877 15.5794 3.98877 29.8942C3.98877 44.2096 15.6352 55.8554 29.95 55.8554C44.2648 55.8554 55.9112 44.209 55.9112 29.8942C55.9106 15.5794 44.2648 3.93298 29.95 3.93298ZM29.0531 54.0396C16.4393 53.5756 6.26795 43.4042 5.80458 30.791H12.9488C13.4014 39.4665 20.3777 46.4427 29.0531 46.8954V54.0396V54.0396ZM29.0531 45.0969C21.3678 44.6485 15.1963 38.4764 14.7473 30.791H22.273C22.685 34.339 25.5052 37.1586 29.0531 37.5712V45.0969V45.0969ZM29.0531 35.7584C26.4965 35.3685 24.4757 33.3476 24.0858 30.791H29.0531V35.7584ZM24.0852 28.9974C24.4751 26.4408 26.4959 24.4199 29.0525 24.03V28.9974H24.0852ZM29.0531 22.2172C25.5052 22.6298 22.6856 25.4494 22.273 28.9974H14.7473C15.1963 21.312 21.3678 15.1405 29.0531 14.6921V22.2172V22.2172ZM29.0531 12.8936C20.3777 13.3462 13.4014 20.3225 12.9488 28.9974H5.80458C6.26795 16.3842 16.4393 6.21276 29.0531 5.74939V12.8936V12.8936ZM30.8462 5.74939C43.46 6.21276 53.6314 16.3842 54.0942 28.9974H46.9499C46.4973 20.3225 39.5211 13.3462 30.8462 12.8936V5.74939ZM35.8141 30.791C35.4243 33.3476 33.4034 35.3685 30.8468 35.7584V30.791H35.8141ZM30.8468 28.9974V24.03C33.4034 24.4199 35.4243 26.4408 35.8141 28.9974H30.8468ZM37.627 30.791H45.1527C44.7043 38.4764 38.5322 44.6479 30.8474 45.0969L30.8468 37.5712C34.3947 37.1586 37.2144 34.339 37.627 30.791ZM30.8462 14.6915C38.5316 15.1405 44.7031 21.312 45.1515 28.9968H37.6264V28.9974C37.2138 25.4494 34.3941 22.6298 30.8462 22.2172V14.6915ZM30.8468 54.039V46.8948C39.5217 46.4422 46.4979 39.4659 46.9505 30.7904H54.0948C53.6314 43.4042 43.46 53.5756 30.8468 54.039Z" fill="#EE58B6"/>
</svg>
