<svg width="60" height="60" viewBox="0 0 60 60" fill="none" xmlns="http://www.w3.org/2000/svg">
<path d="M29.8838 10.1731C18.7899 10.1731 9.76465 19.1989 9.76465 30.2923C9.76465 41.3856 18.7905 50.4115 29.8838 50.4115C40.9778 50.4115 50.0036 41.3856 50.0036 30.2923C50.0036 19.1989 40.9778 10.1731 29.8838 10.1731ZM29.8838 48.2549C19.9791 48.2549 11.9207 40.197 11.9207 30.2923C11.9207 20.3875 19.9791 12.3291 29.8838 12.3291C39.7886 12.3291 47.8464 20.3875 47.8464 30.2923C47.8464 40.197 39.7886 48.2549 29.8838 48.2549Z" fill="#EE58B6"/>
<path d="M34.9678 27.0237L30.6283 31.3632V15.928C30.6283 15.3325 30.1452 14.85 29.5497 14.85C28.9542 14.85 28.4717 15.3325 28.4717 15.928V33.9659C28.4717 34.037 28.4789 34.1082 28.4932 34.1781C28.4992 34.2086 28.5105 34.2367 28.5195 34.2666C28.5303 34.3043 28.5392 34.3426 28.5548 34.3796C28.5697 34.4155 28.5901 34.4478 28.6086 34.4819C28.6235 34.51 28.6361 34.5387 28.654 34.5656C28.733 34.684 28.8352 34.7856 28.9536 34.8651C28.9757 34.8801 28.9996 34.8896 29.0223 34.9022C29.0606 34.9237 29.0977 34.9464 29.1389 34.9638C29.1712 34.9769 29.2053 34.9847 29.2382 34.9949C29.2723 35.005 29.3045 35.0182 29.3398 35.0248C29.4092 35.0385 29.4797 35.0463 29.5503 35.0463C29.6208 35.0463 29.6914 35.0391 29.7607 35.0248C29.796 35.0176 29.8289 35.005 29.863 34.9943C29.8959 34.9841 29.9293 34.9769 29.9616 34.9638C30.0035 34.9464 30.0418 34.9231 30.0806 34.901C30.1027 34.8884 30.1255 34.8795 30.147 34.8651C30.2074 34.8251 30.2636 34.7796 30.3138 34.7282L36.493 28.549C36.914 28.128 36.914 27.4452 36.493 27.0243C36.0715 26.6022 35.3893 26.6022 34.9678 27.0237Z" fill="#EE58B6"/>
<path d="M29.8845 5.40735C16.1628 5.40735 4.99951 16.5707 4.99951 30.293C4.99951 44.0153 16.1628 55.178 29.8845 55.178C43.6062 55.178 54.7701 44.0147 54.7701 30.293C54.7701 16.5713 43.6062 5.40735 29.8845 5.40735ZM29.8845 53.0208C17.352 53.0208 7.15552 42.8248 7.15552 30.2924C7.15552 17.7599 17.3514 7.56336 29.8845 7.56336C42.4176 7.56336 52.6129 17.7599 52.6129 30.2924C52.6129 42.8248 42.417 53.0208 29.8845 53.0208Z" fill="#EE58B6"/>
</svg>
